<mxfile host="app.diagrams.net" agent="Mozilla/5.0 (Windows NT 10.0; Win64; x64) AppleWebKit/537.36 (KHTML, like Gecko) Chrome/135.0.0.0 Safari/537.36" version="26.2.13">
  <diagram name="第 1 页" id="pIs1Afb2l3MKs7CWeh5d">
    <mxGraphModel dx="3437" dy="2574" grid="1" gridSize="10" guides="1" tooltips="1" connect="1" arrows="1" fold="1" page="1" pageScale="1" pageWidth="827" pageHeight="1169" math="1" shadow="0">
      <root>
        <mxCell id="0" />
        <mxCell id="1" parent="0" />
        <mxCell id="wzG9fp-TXqBZrBH7T6T_-55" value="" style="rounded=0;whiteSpace=wrap;html=1;align=center;verticalAlign=middle;fontFamily=Helvetica;fontSize=12;autosize=1;resizable=1;fillColor=#f5f5f5;container=0;movable=1;rotatable=1;deletable=1;editable=1;locked=0;connectable=1;strokeColor=#666666;fontColor=#333333;shadow=1;" vertex="1" parent="1">
          <mxGeometry x="145" y="23.389999999999986" width="720" height="550" as="geometry" />
        </mxCell>
        <mxCell id="wzG9fp-TXqBZrBH7T6T_-53" value="" style="rounded=0;whiteSpace=wrap;html=1;align=center;verticalAlign=middle;fontFamily=Helvetica;fontSize=12;autosize=1;resizable=1;fillColor=#f5f5f5;container=0;movable=1;rotatable=1;deletable=1;editable=1;locked=0;connectable=1;strokeColor=#666666;fontColor=#333333;shadow=1;" vertex="1" parent="1">
          <mxGeometry x="107" y="70" width="720" height="550" as="geometry" />
        </mxCell>
        <mxCell id="wzG9fp-TXqBZrBH7T6T_-49" value="" style="rounded=0;whiteSpace=wrap;html=1;align=center;verticalAlign=middle;fontFamily=Helvetica;fontSize=12;autosize=1;resizable=1;fillColor=#f5f5f5;container=0;movable=1;rotatable=1;deletable=1;editable=1;locked=0;connectable=1;strokeColor=#666666;fontColor=#333333;shadow=1;" vertex="1" parent="1">
          <mxGeometry x="90" y="90" width="720" height="550" as="geometry" />
        </mxCell>
        <mxCell id="wzG9fp-TXqBZrBH7T6T_-10" value="" style="group;fontSize=20;" vertex="1" connectable="0" parent="1">
          <mxGeometry x="190" y="116.61165235168157" width="710" height="503.3883476483184" as="geometry" />
        </mxCell>
        <mxCell id="wzG9fp-TXqBZrBH7T6T_-1" value="" style="shape=cube;whiteSpace=wrap;html=1;boundedLbl=1;backgroundOutline=1;darkOpacity=0.05;darkOpacity2=0.1;size=70;flipH=1;fillColor=#d5e8d4;strokeColor=#82b366;container=0;" vertex="1" parent="wzG9fp-TXqBZrBH7T6T_-10">
          <mxGeometry x="50" y="3.3883476483184296" width="120" height="120" as="geometry" />
        </mxCell>
        <mxCell id="wzG9fp-TXqBZrBH7T6T_-4" value="$$r=5$$" style="text;align=center;verticalAlign=middle;whiteSpace=wrap;rounded=0;html=1;horizontal=1;container=0;" vertex="1" parent="wzG9fp-TXqBZrBH7T6T_-10">
          <mxGeometry y="83.38834764831843" width="60" height="30" as="geometry" />
        </mxCell>
        <mxCell id="wzG9fp-TXqBZrBH7T6T_-6" value="$$r$$" style="text;align=center;verticalAlign=middle;whiteSpace=wrap;rounded=0;html=1;horizontal=1;container=0;" vertex="1" parent="wzG9fp-TXqBZrBH7T6T_-10">
          <mxGeometry x="44" y="115.38834764831843" width="60" height="30" as="geometry" />
        </mxCell>
        <mxCell id="wzG9fp-TXqBZrBH7T6T_-7" value="$$\mathrm{dim}=256$$" style="text;html=1;align=center;verticalAlign=middle;whiteSpace=wrap;rounded=0;fontFamily=Helvetica;fontSize=12;fontColor=default;autosize=1;resizable=0;rotation=-45;container=0;" vertex="1" parent="wzG9fp-TXqBZrBH7T6T_-10">
          <mxGeometry x="85" y="73.38834764831843" width="150" height="30" as="geometry" />
        </mxCell>
        <mxCell id="wzG9fp-TXqBZrBH7T6T_-9" value="&lt;b&gt;&lt;font style=&quot;color: rgb(255, 0, 0); font-size: 20px;&quot;&gt;Q&lt;/font&gt;&lt;/b&gt;" style="text;html=1;align=center;verticalAlign=middle;whiteSpace=wrap;rounded=0;fontFamily=Helvetica;fontSize=12;fontColor=default;autosize=1;resizable=0;container=0;" vertex="1" parent="wzG9fp-TXqBZrBH7T6T_-10">
          <mxGeometry x="39" y="18.38834764831843" width="40" height="40" as="geometry" />
        </mxCell>
        <mxCell id="wzG9fp-TXqBZrBH7T6T_-102" value="&lt;div&gt;&lt;span style=&quot;font-size: 20px;&quot;&gt;$$\mathrm{Softmax}$$&lt;/span&gt;&lt;/div&gt;" style="text;html=1;align=center;verticalAlign=middle;whiteSpace=wrap;rounded=0;fontFamily=Helvetica;fontSize=12;fontColor=default;autosize=1;resizable=0;" vertex="1" parent="wzG9fp-TXqBZrBH7T6T_-10">
          <mxGeometry x="200" y="123.38834764831843" width="230" height="40" as="geometry" />
        </mxCell>
        <mxCell id="wzG9fp-TXqBZrBH7T6T_-36" value="" style="group;fontSize=20;" vertex="1" connectable="0" parent="wzG9fp-TXqBZrBH7T6T_-10">
          <mxGeometry x="320" y="83.39" width="390" height="419.99834764831843" as="geometry" />
        </mxCell>
        <mxCell id="wzG9fp-TXqBZrBH7T6T_-37" value="" style="shape=cube;whiteSpace=wrap;html=1;boundedLbl=1;backgroundOutline=1;darkOpacity=0.05;darkOpacity2=0.1;size=70;flipH=1;fillColor=light-dark(#c4d0e2, #512d2b);strokeColor=light-dark(#000000, #d7817e);container=0;gradientColor=light-dark(#bfd0be, #EDEDED);" vertex="1" parent="wzG9fp-TXqBZrBH7T6T_-36">
          <mxGeometry x="50" y="3.3883476483184296" width="120" height="120" as="geometry" />
        </mxCell>
        <mxCell id="wzG9fp-TXqBZrBH7T6T_-38" value="$$1$$" style="text;align=center;verticalAlign=middle;whiteSpace=wrap;rounded=0;html=1;horizontal=1;container=0;" vertex="1" parent="wzG9fp-TXqBZrBH7T6T_-36">
          <mxGeometry y="83.38834764831843" width="60" height="30" as="geometry" />
        </mxCell>
        <mxCell id="wzG9fp-TXqBZrBH7T6T_-39" value="$$1$$" style="text;align=center;verticalAlign=middle;whiteSpace=wrap;rounded=0;html=1;horizontal=1;container=0;" vertex="1" parent="wzG9fp-TXqBZrBH7T6T_-36">
          <mxGeometry x="44" y="115.38834764831843" width="60" height="30" as="geometry" />
        </mxCell>
        <mxCell id="wzG9fp-TXqBZrBH7T6T_-40" value="$$\mathrm{dim}^2$$" style="text;html=1;align=center;verticalAlign=middle;whiteSpace=wrap;rounded=0;fontFamily=Helvetica;fontSize=12;fontColor=default;autosize=1;resizable=0;rotation=-45;container=0;" vertex="1" parent="wzG9fp-TXqBZrBH7T6T_-36">
          <mxGeometry x="95" y="73.38834764831843" width="130" height="30" as="geometry" />
        </mxCell>
        <mxCell id="wzG9fp-TXqBZrBH7T6T_-41" value="&lt;b&gt;&lt;font style=&quot;color: rgb(255, 0, 0); font-size: 20px;&quot;&gt;Q&lt;/font&gt;&lt;/b&gt;" style="text;html=1;align=center;verticalAlign=middle;whiteSpace=wrap;rounded=0;fontFamily=Helvetica;fontSize=12;fontColor=default;autosize=1;resizable=0;container=0;" vertex="1" parent="wzG9fp-TXqBZrBH7T6T_-36">
          <mxGeometry x="39" y="18.38834764831843" width="40" height="40" as="geometry" />
        </mxCell>
        <mxCell id="wzG9fp-TXqBZrBH7T6T_-11" value="" style="group;fontSize=20;" vertex="1" connectable="0" parent="1">
          <mxGeometry x="190" y="300.00165235168157" width="290" height="176.77669529663683" as="geometry" />
        </mxCell>
        <mxCell id="wzG9fp-TXqBZrBH7T6T_-12" value="" style="shape=cube;whiteSpace=wrap;html=1;boundedLbl=1;backgroundOutline=1;darkOpacity=0.05;darkOpacity2=0.1;size=70;flipH=1;fillColor=#dae8fc;strokeColor=#6c8ebf;container=0;" vertex="1" parent="wzG9fp-TXqBZrBH7T6T_-11">
          <mxGeometry x="50" y="3.3883476483184296" width="120" height="120" as="geometry" />
        </mxCell>
        <mxCell id="wzG9fp-TXqBZrBH7T6T_-13" value="$$r=5$$" style="text;align=center;verticalAlign=middle;whiteSpace=wrap;rounded=0;html=1;horizontal=1;container=0;" vertex="1" parent="wzG9fp-TXqBZrBH7T6T_-11">
          <mxGeometry y="83.38834764831843" width="60" height="30" as="geometry" />
        </mxCell>
        <mxCell id="wzG9fp-TXqBZrBH7T6T_-14" value="$$r$$" style="text;align=center;verticalAlign=middle;whiteSpace=wrap;rounded=0;html=1;horizontal=1;container=0;" vertex="1" parent="wzG9fp-TXqBZrBH7T6T_-11">
          <mxGeometry x="44" y="115.38834764831843" width="60" height="30" as="geometry" />
        </mxCell>
        <mxCell id="wzG9fp-TXqBZrBH7T6T_-15" value="$$\mathrm{dim}=256$$" style="text;html=1;align=center;verticalAlign=middle;whiteSpace=wrap;rounded=0;fontFamily=Helvetica;fontSize=12;fontColor=default;autosize=1;resizable=0;rotation=-45;container=0;" vertex="1" parent="wzG9fp-TXqBZrBH7T6T_-11">
          <mxGeometry x="85" y="73.38834764831843" width="150" height="30" as="geometry" />
        </mxCell>
        <mxCell id="wzG9fp-TXqBZrBH7T6T_-16" value="&lt;b&gt;&lt;font style=&quot;color: rgb(255, 0, 0); font-size: 20px;&quot;&gt;K&lt;/font&gt;&lt;/b&gt;" style="text;html=1;align=center;verticalAlign=middle;whiteSpace=wrap;rounded=0;fontFamily=Helvetica;fontSize=12;fontColor=default;autosize=1;resizable=0;container=0;" vertex="1" parent="wzG9fp-TXqBZrBH7T6T_-11">
          <mxGeometry x="39" y="18.38834764831843" width="40" height="40" as="geometry" />
        </mxCell>
        <mxCell id="wzG9fp-TXqBZrBH7T6T_-17" value="" style="group;fontSize=20;" vertex="1" connectable="0" parent="1">
          <mxGeometry x="190" y="475.78165235168154" width="290" height="176.77669529663683" as="geometry" />
        </mxCell>
        <mxCell id="wzG9fp-TXqBZrBH7T6T_-18" value="" style="shape=cube;whiteSpace=wrap;html=1;boundedLbl=1;backgroundOutline=1;darkOpacity=0.05;darkOpacity2=0.1;size=70;flipH=1;fillColor=#fff2cc;strokeColor=#d6b656;container=0;" vertex="1" parent="wzG9fp-TXqBZrBH7T6T_-17">
          <mxGeometry x="50" y="3.3883476483184296" width="120" height="120" as="geometry" />
        </mxCell>
        <mxCell id="wzG9fp-TXqBZrBH7T6T_-19" value="$$r=5$$" style="text;align=center;verticalAlign=middle;whiteSpace=wrap;rounded=0;html=1;horizontal=1;container=0;" vertex="1" parent="wzG9fp-TXqBZrBH7T6T_-17">
          <mxGeometry y="83.38834764831843" width="60" height="30" as="geometry" />
        </mxCell>
        <mxCell id="wzG9fp-TXqBZrBH7T6T_-20" value="$$r$$" style="text;align=center;verticalAlign=middle;whiteSpace=wrap;rounded=0;html=1;horizontal=1;container=0;" vertex="1" parent="wzG9fp-TXqBZrBH7T6T_-17">
          <mxGeometry x="44" y="115.38834764831843" width="60" height="30" as="geometry" />
        </mxCell>
        <mxCell id="wzG9fp-TXqBZrBH7T6T_-21" value="$$\mathrm{dim}=256$$" style="text;html=1;align=center;verticalAlign=middle;whiteSpace=wrap;rounded=0;fontFamily=Helvetica;fontSize=12;fontColor=default;autosize=1;resizable=0;rotation=-45;container=0;" vertex="1" parent="wzG9fp-TXqBZrBH7T6T_-17">
          <mxGeometry x="85" y="73.38834764831843" width="150" height="30" as="geometry" />
        </mxCell>
        <mxCell id="wzG9fp-TXqBZrBH7T6T_-22" value="&lt;b&gt;&lt;font style=&quot;color: rgb(255, 0, 0); font-size: 20px;&quot;&gt;V&lt;/font&gt;&lt;/b&gt;" style="text;html=1;align=center;verticalAlign=middle;whiteSpace=wrap;rounded=0;fontFamily=Helvetica;fontSize=12;fontColor=default;autosize=1;resizable=0;container=0;" vertex="1" parent="wzG9fp-TXqBZrBH7T6T_-17">
          <mxGeometry x="39" y="18.38834764831843" width="40" height="40" as="geometry" />
        </mxCell>
        <mxCell id="wzG9fp-TXqBZrBH7T6T_-25" value="$$1 \times 1$$" style="rounded=0;whiteSpace=wrap;html=1;align=center;verticalAlign=middle;fontFamily=Helvetica;fontSize=12;fontColor=default;autosize=1;resizable=0;fillColor=default;gradientColor=none;rotation=90;" vertex="1" parent="1">
          <mxGeometry x="90" y="180" width="100" height="30" as="geometry" />
        </mxCell>
        <mxCell id="wzG9fp-TXqBZrBH7T6T_-26" value="$$1 \times 1$$" style="rounded=0;whiteSpace=wrap;html=1;align=center;verticalAlign=middle;fontFamily=Helvetica;fontSize=12;fontColor=default;autosize=1;resizable=0;fillColor=default;gradientColor=none;rotation=90;" vertex="1" parent="1">
          <mxGeometry x="90" y="350" width="100" height="30" as="geometry" />
        </mxCell>
        <mxCell id="wzG9fp-TXqBZrBH7T6T_-27" value="$$1 \times 1$$" style="rounded=0;whiteSpace=wrap;html=1;align=center;verticalAlign=middle;fontFamily=Helvetica;fontSize=12;fontColor=default;autosize=1;resizable=0;fillColor=default;gradientColor=none;rotation=90;" vertex="1" parent="1">
          <mxGeometry x="90" y="529" width="100" height="30" as="geometry" />
        </mxCell>
        <mxCell id="wzG9fp-TXqBZrBH7T6T_-28" value="" style="endArrow=classic;html=1;rounded=0;fontFamily=Helvetica;fontSize=12;fontColor=default;autosize=1;resizable=0;exitX=0.5;exitY=0;exitDx=0;exitDy=0;strokeColor=default;strokeWidth=3;align=center;verticalAlign=middle;labelBackgroundColor=default;" edge="1" parent="1" source="wzG9fp-TXqBZrBH7T6T_-25">
          <mxGeometry width="50" height="50" relative="1" as="geometry">
            <mxPoint x="250" y="420" as="sourcePoint" />
            <mxPoint x="200" y="195" as="targetPoint" />
          </mxGeometry>
        </mxCell>
        <mxCell id="wzG9fp-TXqBZrBH7T6T_-29" value="" style="endArrow=classic;html=1;rounded=0;fontFamily=Helvetica;fontSize=12;fontColor=default;autosize=1;resizable=0;exitX=0.5;exitY=0;exitDx=0;exitDy=0;strokeColor=default;align=center;verticalAlign=middle;labelBackgroundColor=default;strokeWidth=3;" edge="1" parent="1" source="wzG9fp-TXqBZrBH7T6T_-26">
          <mxGeometry width="50" height="50" relative="1" as="geometry">
            <mxPoint x="165" y="205" as="sourcePoint" />
            <mxPoint x="200" y="365" as="targetPoint" />
          </mxGeometry>
        </mxCell>
        <mxCell id="wzG9fp-TXqBZrBH7T6T_-30" value="" style="endArrow=classic;html=1;rounded=0;fontFamily=Helvetica;fontSize=12;fontColor=default;autosize=1;resizable=0;exitX=0.5;exitY=0;exitDx=0;exitDy=0;strokeColor=default;align=center;verticalAlign=middle;labelBackgroundColor=default;strokeWidth=3;" edge="1" parent="1" source="wzG9fp-TXqBZrBH7T6T_-27">
          <mxGeometry width="50" height="50" relative="1" as="geometry">
            <mxPoint x="165" y="374" as="sourcePoint" />
            <mxPoint x="200" y="544" as="targetPoint" />
          </mxGeometry>
        </mxCell>
        <mxCell id="wzG9fp-TXqBZrBH7T6T_-34" value="&lt;font style=&quot;font-size: 40px;&quot;&gt;×&lt;/font&gt;" style="ellipse;whiteSpace=wrap;html=1;align=center;verticalAlign=middle;fontFamily=Helvetica;fontSize=12;fontColor=default;autosize=1;resizable=1;fillColor=none;gradientColor=none;movable=1;rotatable=1;deletable=1;editable=1;locked=0;connectable=1;" vertex="1" parent="1">
          <mxGeometry x="440" y="271.78" width="21.61" height="21.61" as="geometry" />
        </mxCell>
        <mxCell id="wzG9fp-TXqBZrBH7T6T_-35" value="&lt;font style=&quot;font-size: 40px;&quot;&gt;×&lt;/font&gt;" style="ellipse;whiteSpace=wrap;html=1;align=center;verticalAlign=middle;fontFamily=Helvetica;fontSize=12;fontColor=default;autosize=1;resizable=1;fillColor=none;gradientColor=none;movable=1;rotatable=1;deletable=1;editable=1;locked=0;connectable=1;" vertex="1" parent="1">
          <mxGeometry x="740" y="420" width="21.61" height="21.61" as="geometry" />
        </mxCell>
        <mxCell id="wzG9fp-TXqBZrBH7T6T_-42" value="" style="endArrow=classic;html=1;rounded=0;fontFamily=Helvetica;fontSize=12;fontColor=default;autosize=1;resizable=0;entryX=0.5;entryY=0;entryDx=0;entryDy=0;strokeColor=default;strokeWidth=3;align=center;verticalAlign=middle;labelBackgroundColor=default;" edge="1" parent="1" target="wzG9fp-TXqBZrBH7T6T_-34">
          <mxGeometry width="50" height="50" relative="1" as="geometry">
            <mxPoint x="390" y="190" as="sourcePoint" />
            <mxPoint x="570" y="260" as="targetPoint" />
            <Array as="points">
              <mxPoint x="450" y="190" />
            </Array>
          </mxGeometry>
        </mxCell>
        <mxCell id="wzG9fp-TXqBZrBH7T6T_-43" value="" style="endArrow=classic;html=1;rounded=0;fontFamily=Helvetica;fontSize=12;fontColor=default;autosize=1;resizable=0;entryX=0.5;entryY=1;entryDx=0;entryDy=0;strokeColor=default;strokeWidth=3;align=center;verticalAlign=middle;labelBackgroundColor=default;" edge="1" parent="1" target="wzG9fp-TXqBZrBH7T6T_-34">
          <mxGeometry width="50" height="50" relative="1" as="geometry">
            <mxPoint x="390" y="380" as="sourcePoint" />
            <mxPoint x="570" y="260" as="targetPoint" />
            <Array as="points">
              <mxPoint x="450" y="380" />
            </Array>
          </mxGeometry>
        </mxCell>
        <mxCell id="wzG9fp-TXqBZrBH7T6T_-44" value="" style="endArrow=classic;html=1;rounded=0;fontFamily=Helvetica;fontSize=12;fontColor=default;autosize=1;resizable=0;exitX=1;exitY=0.5;exitDx=0;exitDy=0;entryX=0.731;entryY=-0.064;entryDx=0;entryDy=0;entryPerimeter=0;strokeColor=default;strokeWidth=3;align=center;verticalAlign=middle;labelBackgroundColor=default;" edge="1" parent="1" source="wzG9fp-TXqBZrBH7T6T_-34" target="wzG9fp-TXqBZrBH7T6T_-38">
          <mxGeometry width="50" height="50" relative="1" as="geometry">
            <mxPoint x="500" y="390" as="sourcePoint" />
            <mxPoint x="550" y="340" as="targetPoint" />
          </mxGeometry>
        </mxCell>
        <mxCell id="wzG9fp-TXqBZrBH7T6T_-45" value="" style="endArrow=classic;html=1;rounded=0;fontFamily=Helvetica;fontSize=12;fontColor=default;autosize=1;resizable=0;entryX=0.5;entryY=1;entryDx=0;entryDy=0;strokeColor=default;strokeWidth=3;align=center;verticalAlign=middle;labelBackgroundColor=default;" edge="1" parent="1">
          <mxGeometry width="50" height="50" relative="1" as="geometry">
            <mxPoint x="390" y="559" as="sourcePoint" />
            <mxPoint x="750.8050000000001" y="440.6100000000001" as="targetPoint" />
            <Array as="points">
              <mxPoint x="751" y="559" />
            </Array>
          </mxGeometry>
        </mxCell>
        <mxCell id="wzG9fp-TXqBZrBH7T6T_-46" value="" style="endArrow=classic;html=1;rounded=0;fontFamily=Helvetica;fontSize=12;fontColor=default;autosize=1;resizable=0;entryX=0.5;entryY=0;entryDx=0;entryDy=0;strokeColor=default;strokeWidth=3;align=center;verticalAlign=middle;labelBackgroundColor=default;" edge="1" parent="1" target="wzG9fp-TXqBZrBH7T6T_-35">
          <mxGeometry width="50" height="50" relative="1" as="geometry">
            <mxPoint x="680" y="280" as="sourcePoint" />
            <mxPoint x="550" y="380" as="targetPoint" />
            <Array as="points">
              <mxPoint x="750" y="280" />
            </Array>
          </mxGeometry>
        </mxCell>
        <mxCell id="wzG9fp-TXqBZrBH7T6T_-47" value="$$3 \times 3$$" style="rounded=0;whiteSpace=wrap;html=1;align=center;verticalAlign=middle;fontFamily=Helvetica;fontSize=12;fontColor=default;autosize=1;resizable=0;fillColor=default;gradientColor=none;rotation=90;" vertex="1" parent="1">
          <mxGeometry x="920" y="350" width="100" height="30" as="geometry" />
        </mxCell>
        <mxCell id="wzG9fp-TXqBZrBH7T6T_-56" value="&lt;font style=&quot;font-size: 20px;&quot;&gt;Spatial-Temporal Transformer&lt;/font&gt;&lt;div&gt;&lt;br&gt;&lt;/div&gt;" style="text;html=1;align=center;verticalAlign=middle;whiteSpace=wrap;rounded=0;fontFamily=Helvetica;fontSize=12;fontColor=default;autosize=1;resizable=0;" vertex="1" parent="1">
          <mxGeometry x="370" y="-26.609999999999985" width="290" height="50" as="geometry" />
        </mxCell>
        <mxCell id="wzG9fp-TXqBZrBH7T6T_-57" value="" style="endArrow=classic;html=1;rounded=0;fontFamily=Helvetica;fontSize=12;fontColor=default;autosize=1;resizable=0;exitX=1;exitY=0.5;exitDx=0;exitDy=0;entryX=0.75;entryY=1;entryDx=0;entryDy=0;strokeWidth=3;strokeColor=default;align=center;verticalAlign=middle;labelBackgroundColor=default;" edge="1" parent="1" source="wzG9fp-TXqBZrBH7T6T_-35" target="wzG9fp-TXqBZrBH7T6T_-47">
          <mxGeometry width="50" height="50" relative="1" as="geometry">
            <mxPoint x="490" y="420" as="sourcePoint" />
            <mxPoint x="540" y="370" as="targetPoint" />
            <Array as="points">
              <mxPoint x="900" y="431" />
              <mxPoint x="900" y="390" />
            </Array>
          </mxGeometry>
        </mxCell>
        <mxCell id="wzG9fp-TXqBZrBH7T6T_-58" value="" style="endArrow=classic;html=1;rounded=0;fontFamily=Helvetica;fontSize=12;fontColor=default;autosize=1;resizable=0;entryX=0.5;entryY=1;entryDx=0;entryDy=0;strokeColor=default;strokeWidth=3;align=center;verticalAlign=middle;labelBackgroundColor=default;" edge="1" parent="1" target="wzG9fp-TXqBZrBH7T6T_-47">
          <mxGeometry width="50" height="50" relative="1" as="geometry">
            <mxPoint x="830" y="365" as="sourcePoint" />
            <mxPoint x="770" y="290" as="targetPoint" />
          </mxGeometry>
        </mxCell>
        <mxCell id="wzG9fp-TXqBZrBH7T6T_-59" value="" style="endArrow=classic;html=1;rounded=0;fontFamily=Helvetica;fontSize=12;fontColor=default;autosize=1;resizable=0;entryX=0.15;entryY=0.99;entryDx=0;entryDy=0;entryPerimeter=0;strokeColor=default;strokeWidth=3;align=center;verticalAlign=middle;labelBackgroundColor=default;" edge="1" parent="1" target="wzG9fp-TXqBZrBH7T6T_-47">
          <mxGeometry width="50" height="50" relative="1" as="geometry">
            <mxPoint x="870" y="330" as="sourcePoint" />
            <mxPoint x="965" y="375" as="targetPoint" />
          </mxGeometry>
        </mxCell>
        <mxCell id="wzG9fp-TXqBZrBH7T6T_-60" value="&lt;font style=&quot;font-size: 40px;&quot;&gt;+&lt;/font&gt;" style="ellipse;whiteSpace=wrap;html=1;align=center;verticalAlign=middle;fontFamily=Helvetica;fontSize=12;fontColor=default;autosize=1;resizable=1;fillColor=none;gradientColor=none;movable=1;rotatable=1;deletable=1;editable=1;locked=0;connectable=1;" vertex="1" parent="1">
          <mxGeometry x="1020" y="352.59999999999997" width="24" height="24.8" as="geometry" />
        </mxCell>
        <mxCell id="wzG9fp-TXqBZrBH7T6T_-61" value="" style="endArrow=classic;html=1;rounded=0;fontFamily=Helvetica;fontSize=12;fontColor=default;autosize=1;resizable=0;entryX=0;entryY=0.5;entryDx=0;entryDy=0;strokeColor=default;strokeWidth=3;align=center;verticalAlign=middle;labelBackgroundColor=default;exitX=0.5;exitY=0;exitDx=0;exitDy=0;" edge="1" parent="1" source="wzG9fp-TXqBZrBH7T6T_-47" target="wzG9fp-TXqBZrBH7T6T_-60">
          <mxGeometry width="50" height="50" relative="1" as="geometry">
            <mxPoint x="840" y="375" as="sourcePoint" />
            <mxPoint x="965" y="375" as="targetPoint" />
          </mxGeometry>
        </mxCell>
        <mxCell id="wzG9fp-TXqBZrBH7T6T_-66" value="" style="group" vertex="1" connectable="0" parent="1">
          <mxGeometry x="-460" y="50" width="270" height="270" as="geometry" />
        </mxCell>
        <mxCell id="wzG9fp-TXqBZrBH7T6T_-62" value="" style="shape=cube;whiteSpace=wrap;html=1;boundedLbl=1;backgroundOutline=1;darkOpacity=0.05;darkOpacity2=0.1;align=center;verticalAlign=middle;fontFamily=Helvetica;fontSize=12;autosize=1;resizable=1;fillColor=#e1d5e7;flipH=1;movable=1;rotatable=1;deletable=1;editable=1;locked=0;connectable=1;strokeColor=#9673a6;" vertex="1" parent="wzG9fp-TXqBZrBH7T6T_-66">
          <mxGeometry width="270" height="270" as="geometry" />
        </mxCell>
        <mxCell id="wzG9fp-TXqBZrBH7T6T_-65" value="&lt;font style=&quot;font-size: 20px;&quot;&gt;Frame 1&lt;/font&gt;" style="text;html=1;align=center;verticalAlign=middle;whiteSpace=wrap;rounded=0;fontFamily=Helvetica;fontSize=12;fontColor=default;autosize=1;resizable=0;" vertex="1" parent="wzG9fp-TXqBZrBH7T6T_-66">
          <mxGeometry x="85" y="126.60999999999999" width="100" height="40" as="geometry" />
        </mxCell>
        <mxCell id="wzG9fp-TXqBZrBH7T6T_-67" value="" style="group" vertex="1" connectable="0" parent="1">
          <mxGeometry x="-460" y="450" width="270" height="270" as="geometry" />
        </mxCell>
        <mxCell id="wzG9fp-TXqBZrBH7T6T_-68" value="" style="shape=cube;whiteSpace=wrap;html=1;boundedLbl=1;backgroundOutline=1;darkOpacity=0.05;darkOpacity2=0.1;align=center;verticalAlign=middle;fontFamily=Helvetica;fontSize=12;autosize=1;resizable=1;fillColor=#e1d5e7;flipH=1;movable=1;rotatable=1;deletable=1;editable=1;locked=0;connectable=1;strokeColor=#9673a6;" vertex="1" parent="wzG9fp-TXqBZrBH7T6T_-67">
          <mxGeometry width="270" height="270" as="geometry" />
        </mxCell>
        <mxCell id="wzG9fp-TXqBZrBH7T6T_-69" value="&lt;font style=&quot;font-size: 20px;&quot;&gt;Frame T=5&lt;/font&gt;" style="text;html=1;align=center;verticalAlign=middle;whiteSpace=wrap;rounded=0;fontFamily=Helvetica;fontSize=12;fontColor=default;autosize=1;resizable=0;" vertex="1" parent="wzG9fp-TXqBZrBH7T6T_-67">
          <mxGeometry x="75" y="126.60999999999999" width="120" height="40" as="geometry" />
        </mxCell>
        <mxCell id="wzG9fp-TXqBZrBH7T6T_-70" value="&lt;b&gt;&lt;font style=&quot;font-size: 30px;&quot;&gt;......&lt;/font&gt;&lt;/b&gt;" style="text;html=1;align=center;verticalAlign=middle;whiteSpace=wrap;rounded=0;fontFamily=Helvetica;fontSize=12;fontColor=default;autosize=1;resizable=0;rotation=-90;" vertex="1" parent="1">
          <mxGeometry x="-380" y="360" width="70" height="50" as="geometry" />
        </mxCell>
        <mxCell id="wzG9fp-TXqBZrBH7T6T_-72" value="" style="endArrow=classic;html=1;rounded=0;strokeColor=default;strokeWidth=3;align=center;verticalAlign=middle;fontFamily=Helvetica;fontSize=12;fontColor=default;labelBackgroundColor=default;autosize=1;resizable=0;entryX=0.5;entryY=1;entryDx=0;entryDy=0;" edge="1" parent="1" target="wzG9fp-TXqBZrBH7T6T_-26">
          <mxGeometry width="50" height="50" relative="1" as="geometry">
            <mxPoint x="10" y="365" as="sourcePoint" />
            <mxPoint x="50" y="320" as="targetPoint" />
          </mxGeometry>
        </mxCell>
        <mxCell id="wzG9fp-TXqBZrBH7T6T_-74" value="" style="endArrow=classic;html=1;rounded=0;strokeColor=default;strokeWidth=3;align=center;verticalAlign=middle;fontFamily=Helvetica;fontSize=12;fontColor=default;labelBackgroundColor=default;autosize=1;resizable=0;entryX=0.5;entryY=1;entryDx=0;entryDy=0;" edge="1" parent="1" target="wzG9fp-TXqBZrBH7T6T_-25">
          <mxGeometry width="50" height="50" relative="1" as="geometry">
            <mxPoint x="50" y="360" as="sourcePoint" />
            <mxPoint x="80" y="269" as="targetPoint" />
            <Array as="points">
              <mxPoint x="50" y="195" />
            </Array>
          </mxGeometry>
        </mxCell>
        <mxCell id="wzG9fp-TXqBZrBH7T6T_-75" value="" style="endArrow=classic;html=1;rounded=0;strokeColor=default;strokeWidth=3;align=center;verticalAlign=middle;fontFamily=Helvetica;fontSize=12;fontColor=default;labelBackgroundColor=default;autosize=1;resizable=0;entryX=0.5;entryY=1;entryDx=0;entryDy=0;" edge="1" parent="1" target="wzG9fp-TXqBZrBH7T6T_-27">
          <mxGeometry width="50" height="50" relative="1" as="geometry">
            <mxPoint x="50" y="360" as="sourcePoint" />
            <mxPoint x="80" y="430" as="targetPoint" />
            <Array as="points">
              <mxPoint x="50" y="544" />
            </Array>
          </mxGeometry>
        </mxCell>
        <mxCell id="wzG9fp-TXqBZrBH7T6T_-76" value="" style="endArrow=classic;html=1;rounded=0;strokeColor=default;strokeWidth=3;align=center;verticalAlign=middle;fontFamily=Helvetica;fontSize=12;fontColor=default;labelBackgroundColor=default;autosize=1;resizable=0;entryX=0.5;entryY=1;entryDx=0;entryDy=0;" edge="1" parent="1" target="wzG9fp-TXqBZrBH7T6T_-60">
          <mxGeometry width="50" height="50" relative="1" as="geometry">
            <mxPoint x="30" y="360" as="sourcePoint" />
            <mxPoint x="1042" y="367.4000000000001" as="targetPoint" />
            <Array as="points">
              <mxPoint x="30" y="690" />
              <mxPoint x="1032" y="690" />
            </Array>
          </mxGeometry>
        </mxCell>
        <mxCell id="wzG9fp-TXqBZrBH7T6T_-85" value="" style="group" vertex="1" connectable="0" parent="1">
          <mxGeometry x="1120" y="40" width="270" height="270" as="geometry" />
        </mxCell>
        <mxCell id="wzG9fp-TXqBZrBH7T6T_-86" value="" style="shape=cube;whiteSpace=wrap;html=1;boundedLbl=1;backgroundOutline=1;darkOpacity=0.05;darkOpacity2=0.1;align=center;verticalAlign=middle;fontFamily=Helvetica;fontSize=12;autosize=1;resizable=1;fillColor=#f8cecc;flipH=1;movable=1;rotatable=1;deletable=1;editable=1;locked=0;connectable=1;strokeColor=#b85450;" vertex="1" parent="wzG9fp-TXqBZrBH7T6T_-85">
          <mxGeometry width="270" height="270" as="geometry" />
        </mxCell>
        <mxCell id="wzG9fp-TXqBZrBH7T6T_-87" value="&lt;font style=&quot;font-size: 20px;&quot;&gt;Target Frame 1&lt;/font&gt;" style="text;html=1;align=center;verticalAlign=middle;whiteSpace=wrap;rounded=0;fontFamily=Helvetica;fontSize=12;fontColor=default;autosize=1;resizable=0;" vertex="1" parent="wzG9fp-TXqBZrBH7T6T_-85">
          <mxGeometry x="55" y="126.60999999999999" width="160" height="40" as="geometry" />
        </mxCell>
        <mxCell id="wzG9fp-TXqBZrBH7T6T_-88" value="" style="group" vertex="1" connectable="0" parent="1">
          <mxGeometry x="1120" y="440" width="270" height="270" as="geometry" />
        </mxCell>
        <mxCell id="wzG9fp-TXqBZrBH7T6T_-89" value="" style="shape=cube;whiteSpace=wrap;html=1;boundedLbl=1;backgroundOutline=1;darkOpacity=0.05;darkOpacity2=0.1;align=center;verticalAlign=middle;fontFamily=Helvetica;fontSize=12;autosize=1;resizable=1;fillColor=#f8cecc;flipH=1;movable=1;rotatable=1;deletable=1;editable=1;locked=0;connectable=1;strokeColor=#b85450;" vertex="1" parent="wzG9fp-TXqBZrBH7T6T_-88">
          <mxGeometry width="270" height="270" as="geometry" />
        </mxCell>
        <mxCell id="wzG9fp-TXqBZrBH7T6T_-90" value="&lt;font style=&quot;font-size: 20px;&quot;&gt;Target Frame T=5&lt;/font&gt;" style="text;html=1;align=center;verticalAlign=middle;whiteSpace=wrap;rounded=0;fontFamily=Helvetica;fontSize=12;fontColor=default;autosize=1;resizable=0;" vertex="1" parent="wzG9fp-TXqBZrBH7T6T_-88">
          <mxGeometry x="45" y="126.60999999999999" width="180" height="40" as="geometry" />
        </mxCell>
        <mxCell id="wzG9fp-TXqBZrBH7T6T_-91" value="&lt;b&gt;&lt;font style=&quot;font-size: 30px;&quot;&gt;......&lt;/font&gt;&lt;/b&gt;" style="text;html=1;align=center;verticalAlign=middle;whiteSpace=wrap;rounded=0;fontFamily=Helvetica;fontSize=12;fontColor=default;autosize=1;resizable=0;rotation=-90;" vertex="1" parent="1">
          <mxGeometry x="1200" y="350" width="70" height="50" as="geometry" />
        </mxCell>
        <mxCell id="wzG9fp-TXqBZrBH7T6T_-92" value="" style="endArrow=classic;html=1;rounded=0;strokeColor=default;strokeWidth=3;align=center;verticalAlign=middle;fontFamily=Helvetica;fontSize=12;fontColor=default;labelBackgroundColor=default;autosize=1;resizable=0;exitX=1;exitY=0.5;exitDx=0;exitDy=0;" edge="1" parent="1" source="wzG9fp-TXqBZrBH7T6T_-60">
          <mxGeometry width="50" height="50" relative="1" as="geometry">
            <mxPoint x="720" y="330" as="sourcePoint" />
            <mxPoint x="1110" y="365" as="targetPoint" />
          </mxGeometry>
        </mxCell>
        <mxCell id="wzG9fp-TXqBZrBH7T6T_-93" value="" style="group;fontSize=20;" vertex="1" connectable="0" parent="1">
          <mxGeometry x="-180" y="310.00165235168157" width="290" height="176.77669529663683" as="geometry" />
        </mxCell>
        <mxCell id="wzG9fp-TXqBZrBH7T6T_-94" value="" style="shape=cube;whiteSpace=wrap;html=1;boundedLbl=1;backgroundOutline=1;darkOpacity=0.05;darkOpacity2=0.1;size=70;flipH=1;fillColor=#dae8fc;strokeColor=#6c8ebf;container=0;" vertex="1" parent="wzG9fp-TXqBZrBH7T6T_-93">
          <mxGeometry x="50" y="3.3883476483184296" width="120" height="120" as="geometry" />
        </mxCell>
        <mxCell id="wzG9fp-TXqBZrBH7T6T_-95" value="$$r=5$$" style="text;align=center;verticalAlign=middle;whiteSpace=wrap;rounded=0;html=1;horizontal=1;container=0;" vertex="1" parent="wzG9fp-TXqBZrBH7T6T_-93">
          <mxGeometry y="83.38834764831843" width="60" height="30" as="geometry" />
        </mxCell>
        <mxCell id="wzG9fp-TXqBZrBH7T6T_-96" value="$$r$$" style="text;align=center;verticalAlign=middle;whiteSpace=wrap;rounded=0;html=1;horizontal=1;container=0;" vertex="1" parent="wzG9fp-TXqBZrBH7T6T_-93">
          <mxGeometry x="44" y="115.38834764831843" width="60" height="30" as="geometry" />
        </mxCell>
        <mxCell id="wzG9fp-TXqBZrBH7T6T_-97" value="$$\frac{h}{r}\cdot \frac{w}{r}\cdot T\cdot C$$" style="text;html=1;align=center;verticalAlign=middle;whiteSpace=wrap;rounded=0;fontFamily=Helvetica;fontSize=12;fontColor=default;autosize=1;resizable=0;rotation=-45;container=0;" vertex="1" parent="wzG9fp-TXqBZrBH7T6T_-93">
          <mxGeometry x="30" y="73.38834764831843" width="260" height="30" as="geometry" />
        </mxCell>
        <mxCell id="wzG9fp-TXqBZrBH7T6T_-99" value="" style="endArrow=classic;html=1;rounded=0;strokeColor=default;strokeWidth=3;align=center;verticalAlign=middle;fontFamily=Helvetica;fontSize=12;fontColor=default;labelBackgroundColor=default;autosize=1;resizable=0;dashed=1;" edge="1" parent="1">
          <mxGeometry width="50" height="50" relative="1" as="geometry">
            <mxPoint x="-200" y="390" as="sourcePoint" />
            <mxPoint x="-150" y="390" as="targetPoint" />
          </mxGeometry>
        </mxCell>
        <mxCell id="wzG9fp-TXqBZrBH7T6T_-104" value="&lt;div&gt;&lt;span style=&quot;font-size: 20px;&quot;&gt;Multi-head&lt;/span&gt;&lt;/div&gt;" style="text;html=1;align=center;verticalAlign=middle;whiteSpace=wrap;rounded=0;fontFamily=Helvetica;fontSize=12;fontColor=default;autosize=1;resizable=0;rotation=-45;" vertex="1" parent="1">
          <mxGeometry x="40" y="23.390000000000015" width="120" height="40" as="geometry" />
        </mxCell>
      </root>
    </mxGraphModel>
  </diagram>
</mxfile>
